<?xml version="1.0" encoding="UTF-8" standalone="no"?>
<!DOCTYPE svg PUBLIC "-//W3C//DTD SVG 1.1//EN" "http://www.w3.org/Graphics/SVG/1.1/DTD/svg11.dtd">
<svg width="100%" height="100%" viewBox="0 0 400 128" version="1.1" xmlns="http://www.w3.org/2000/svg" xmlns:xlink="http://www.w3.org/1999/xlink" xml:space="preserve" xmlns:serif="http://www.serif.com/" style="fill-rule:evenodd;clip-rule:evenodd;stroke-linejoin:round;stroke-miterlimit:2;">
    <g transform="matrix(7.31414,0,0,7.17667,131.945,98.242)">
        <g transform="matrix(0.961004,0,0,1,24.9672,-0.00568979)">
            <text x="0px" y="0px" style="font-family:'Helvetica-Bold', 'Helvetica';font-weight:700;font-size:12px;fill:rgb(189,226,255);">oi</text>
        </g>
        <g transform="matrix(1,0,0,1,6.445,0)">
            <text x="0px" y="0px" style="font-family:'Helvetica-Bold', 'Helvetica';font-weight:700;font-size:12px;fill:rgb(189,226,255);">oml</text>
        </g>
        <text x="0px" y="0px" style="font-family:'Helvetica-Bold', 'Helvetica';font-weight:700;font-size:12px;fill:rgb(189,226,255);">T</text>
    </g>
    <g transform="matrix(0.109125,0,0,0.109125,93.8087,22)">
        <path d="M0,0C0.99,0.33 1.98,0.66 3,1C4.047,21.814 -0.248,43.235 -12.055,60.75C-13.037,63.088 -13.204,64.777 -13.398,67.289C-13.846,72.042 -15.305,75.325 -17.75,79.375C-18.337,80.381 -18.337,80.381 -18.936,81.407C-28.455,97.417 -39.626,112.45 -51.375,126.875C-51.925,127.551 -52.476,128.227 -53.043,128.923C-57.558,134.463 -57.558,134.463 -59.591,136.934C-69.366,148.121 -69.366,148.121 -73,162C-68.471,161.472 -65.897,159.757 -62.313,157C-61.791,156.6 -61.27,156.2 -60.733,155.788C-56.414,152.426 -52.329,148.831 -48.305,145.121C-46.196,143.181 -44.049,141.303 -41.875,139.438C-38.416,136.43 -35.207,133.226 -31.992,129.961C-30.097,128.095 -28.146,126.353 -26.125,124.625C-19.909,119.263 -14.105,113.47 -8.754,107.246C-4.011,101.784 1.173,96.78 6.328,91.711C10.487,87.595 14.445,83.402 18.258,78.965C21.973,74.774 26.043,70.92 30.039,67C33.258,63.819 36.382,60.617 39.332,57.184C43.44,52.419 47.83,47.948 52.268,43.491C53.675,42.075 55.071,40.648 56.467,39.221C64.404,31.24 73.143,22.701 84,19C85,20 85,20 85.313,23.25C84.926,41.459 72.295,58.426 61.476,72.123C60.049,73.937 58.649,75.768 57.258,77.609C53.221,82.943 49.101,88.145 44.629,93.125C42.908,95.105 41.331,97.157 39.75,99.25C28.887,113.333 15.755,126.639 1.84,137.688C-1.7,140.57 -5.115,143.564 -8.5,146.625C-9.1,147.152 -9.7,147.678 -10.319,148.221C-14.261,151.83 -16.22,154.952 -18,160C19.278,146.902 53.048,118.803 84.089,95.032C92.337,88.721 100.667,82.527 109.062,76.413C110.682,75.231 112.299,74.044 113.914,72.855C140.048,54 140.048,54 153,54C151.56,64.768 140.269,74.544 133.314,82.486C132.26,83.701 131.228,84.935 130.203,86.176C121.97,96.085 111.783,104.658 102,113C101.109,113.781 100.219,114.562 99.301,115.367C86.939,126.121 73.593,135.588 60.082,144.832C56.593,147.286 53.193,149.837 49.813,152.438C48.982,153.076 48.982,153.076 48.135,153.728C45.977,155.403 43.934,157.066 42,159C41.833,161.584 41.833,161.584 42,164C47.906,163.034 53.208,161.227 58.719,158.926C59.83,158.465 59.83,158.465 60.963,157.994C69.423,154.451 77.744,150.611 86.063,146.75C87.699,145.993 89.336,145.237 90.973,144.481C93.412,143.355 95.851,142.228 98.29,141.099C102.758,139.032 107.232,136.977 111.715,134.941C123.002,129.815 134.195,124.517 145.347,119.103C153.922,114.943 162.525,110.852 171.188,106.875C172.136,106.438 173.085,106.001 174.063,105.551C190.608,98 190.608,98 194,98C192.516,101.487 190.538,103.642 187.813,106.25C184.873,109.119 182.05,112.007 179.375,115.125C167.248,129.122 152.688,138.635 137.016,148.273C131.608,151.603 126.281,155.036 121,158.563C120.302,159.026 119.603,159.49 118.884,159.969C110.541,165.483 110.541,165.483 103,172C108.952,172.222 113.906,171.541 119.625,169.938C120.428,169.72 121.23,169.502 122.057,169.278C131.401,166.697 140.62,163.702 149.828,160.677C153.67,159.48 157.024,158.843 161.063,158.813C161.92,158.798 162.777,158.784 163.66,158.77C166,159 166,159 169,161C166.755,169.231 158.416,174.384 152.102,179.473C138.651,190.292 138.651,190.292 126,202C126.892,202.242 127.784,202.485 128.703,202.734C129.874,203.07 131.044,203.405 132.25,203.75C133.41,204.075 134.57,204.4 135.766,204.734C139.129,206.05 140.806,207.159 143,210C143.35,215.956 140.659,219.377 137.016,223.738C130.931,230.566 124.654,235.97 117,241C115.515,241.99 115.515,241.99 114,243C114.699,243.326 115.397,243.652 116.117,243.988C117.027,244.425 117.937,244.862 118.875,245.313C119.78,245.742 120.685,246.171 121.617,246.613C124,248 124,248 126,251C126.699,254.261 126.456,256.23 124.75,259.109C118.272,267.807 110.145,274.293 101,280C103.215,281.68 105.427,283.281 107.75,284.813C110,287 110,287 110.379,289.832C109.68,295.68 105.172,299.144 101,303C98.086,305.148 95.15,307.178 92.09,309.113C91.4,309.736 90.711,310.359 90,311C89.96,312.666 89.962,314.334 90,316C87.277,320.319 83.567,322.971 79.375,325.75C78.497,326.347 78.497,326.347 77.602,326.957C75.445,328.416 73.331,329.834 71,331C71.969,331.681 72.939,332.361 73.938,333.063C76.55,335.259 77.026,336.077 78.188,339.5C78,343 78,343 76.188,345.625C70.928,349.544 65.67,353 59,353C59.447,353.508 59.895,354.016 60.355,354.539C61.611,355.968 62.86,357.402 64.105,358.84C65.25,360.145 66.415,361.435 67.613,362.691C69.77,365.018 70.971,366.397 71.125,369.625C69.141,373.813 65.571,375.638 61.75,378.063C58.746,379.772 58.746,379.772 58,383C58.954,384.842 58.954,384.842 60.375,386.688C63.175,390.947 64.085,393.878 64,399C61.174,402.595 58.071,404.08 53.875,405.75C52.293,406.392 52.293,406.392 50.68,407.047C48,408 48,408 46,408C46.234,408.978 46.234,408.978 46.473,409.977C48.667,419.831 48.667,419.831 47,424C43.608,427.666 39.88,430.564 35.5,432.938C34.675,433.618 33.85,434.299 33,435C33,437.012 33.007,439.029 33.168,441.035C33,443 33,443 30.313,445.875C25.691,448.84 22.529,450.316 17,450C17.324,450.715 17.647,451.431 17.98,452.168C20.314,458.651 19.704,465.987 16.992,472.277C15.041,475.665 12.491,478.255 9,480C7.523,480.095 6.042,480.13 4.563,480.125C3.78,480.128 2.998,480.13 2.191,480.133C0,480 0,480 -3,479C-2.965,480.085 -2.93,481.171 -2.895,482.289C-2.866,483.734 -2.839,485.18 -2.813,486.625C-2.787,487.338 -2.762,488.051 -2.736,488.785C-2.67,493.614 -3.365,496.801 -6,501C-10.665,505.315 -13.936,506.13 -20.188,506.063C-21.274,506.053 -22.361,506.044 -23.48,506.035C-24.728,506.018 -24.728,506.018 -26,506C-26.037,506.846 -26.075,507.691 -26.113,508.563C-26.991,523.711 -26.991,523.711 -31.426,528.559C-36.334,532.858 -40.312,533.214 -46.547,533.168C-49.346,532.976 -51.524,532.321 -54,531C-54.124,532.794 -54.124,532.794 -54.25,534.625C-54.809,538.955 -56.152,541.613 -59,545C-64.759,549.439 -68.595,550.134 -75.75,550.063C-76.92,550.053 -78.091,550.044 -79.297,550.035C-80.189,550.024 -81.081,550.012 -82,550C-82.311,550.944 -82.311,550.944 -82.629,551.906C-85.41,559.633 -89.04,565.545 -96.125,569.938C-102.137,572.159 -107.651,572.111 -114,572C-114.124,573.052 -114.124,573.052 -114.25,574.125C-115.523,579.004 -117.964,582.106 -121.75,585.375C-125.755,587.377 -128.677,587.944 -133,587C-140.59,584.091 -147.101,579.747 -153.527,574.832C-155.939,573.045 -158.403,571.501 -161,570C-160.639,570.666 -160.278,571.333 -159.906,572.02C-156.498,578.789 -154.834,584.411 -156,592C-157.373,595.119 -157.98,596.49 -161,598C-163.06,598.156 -165.124,598.275 -167.188,598.375C-171.198,598.642 -173.804,598.913 -177.5,600.563C-185.712,603.935 -194.539,602.433 -202.656,599.422C-209.539,596.495 -216.28,593.28 -223,590C-219.04,592.97 -219.04,592.97 -215,596C-215.33,596.66 -215.66,597.32 -216,598C-213.325,601.552 -209.736,602.053 -205.613,602.938C-204.511,603.187 -204.511,603.187 -203.387,603.441C-201.031,603.971 -198.672,604.485 -196.313,605C-194.775,605.345 -193.238,605.692 -191.701,606.039C-184.273,607.705 -176.826,609.284 -169.355,610.75C-168.129,610.992 -166.902,611.235 -165.637,611.484C-156.896,612.723 -148.964,611.359 -140.32,609.895C-138.918,609.66 -137.515,609.426 -136.112,609.193C-132.259,608.547 -128.408,607.89 -124.557,607.229C-122.118,606.811 -119.678,606.396 -117.238,605.98C-80.324,599.679 -43.612,592.354 -6.899,584.986C-5.212,584.647 -5.212,584.647 -3.492,584.302C1.813,583.237 7.117,582.17 12.421,581.096C39.147,575.699 39.147,575.699 47.25,575.875C48.348,575.893 49.447,575.911 50.578,575.93C51.777,575.964 51.777,575.964 53,576C50.943,578.234 49.094,579.619 46.348,580.902C45.306,581.402 45.306,581.402 44.244,581.912C42.794,582.593 41.344,583.273 39.893,583.951C35.857,585.892 33.144,587.764 30,591C16.027,598.505 -0.796,601.738 -16,606C-3.696,605.628 8.583,605.048 20.867,604.266C21.923,604.199 22.98,604.132 24.068,604.063C29.406,603.723 34.744,603.375 40.082,603.016C52.743,602.188 65.313,601.818 78,602C76.711,604.579 75.773,604.677 73.117,605.699C72.292,606.018 71.467,606.336 70.616,606.665C69.712,607.002 68.807,607.34 67.875,607.688C66.934,608.041 65.994,608.394 65.024,608.757C46.395,615.633 27.351,620.623 8,625C7.205,625.181 6.41,625.362 5.591,625.548C-5.258,628 -5.258,628 -9,628L-9,630C-7.726,630.113 -6.453,630.227 -5.141,630.344C2.201,631.078 9.5,632.131 16.806,633.157C19.258,633.501 21.711,633.843 24.164,634.184C25.74,634.403 27.315,634.624 28.891,634.844C29.616,634.945 30.341,635.046 31.088,635.15C35.069,635.71 39.037,636.32 43,637L43,639C42.013,639.08 41.026,639.161 40.009,639.244C36.278,639.549 32.546,639.86 28.815,640.172C27.214,640.305 25.612,640.437 24.01,640.567C13.942,641.387 3.983,642.429 -6,644C-4.952,644.266 -3.904,644.531 -2.824,644.805C-1.445,645.161 -0.066,645.518 1.313,645.875C2.003,646.049 2.693,646.223 3.404,646.402C6.719,647.267 9.123,648.082 12,650C10.991,652.926 10.162,653.904 7.465,655.508C2.707,657.557 -2.108,658.503 -7.162,659.549C-9.121,659.976 -11.063,660.482 -13,661C-13.33,661.66 -13.66,662.32 -14,663C-18.646,663.88 -23.313,664.221 -28.027,664.535C-29.956,664.666 -29.956,664.666 -31.924,664.799C-33.262,664.887 -34.6,664.975 -35.938,665.063C-37.303,665.154 -38.668,665.246 -40.033,665.338C-43.355,665.561 -46.678,665.782 -50,666C-47.69,666.99 -45.38,667.98 -43,669L-43,671C-49.691,673.989 -55.53,674.529 -62.813,674.688C-64.308,674.739 -64.308,674.739 -65.834,674.791C-82.661,675.307 -99.384,674.914 -116.188,674C-118.902,673.856 -121.616,673.713 -124.331,673.572C-125.998,673.485 -127.664,673.397 -129.33,673.305C-145.775,672.437 -161.978,673.708 -177.848,678.195C-181,679 -181,679 -185,679C-185.33,679.99 -185.66,680.98 -186,682C-192.397,684.303 -198.974,684.386 -205.707,684.656C-209.139,684.756 -209.139,684.756 -212,687C-221.643,688.722 -231.321,688.176 -241,687L-241,689C-243.062,689.027 -245.125,689.046 -247.188,689.063C-248.336,689.074 -249.485,689.086 -250.668,689.098C-254,689 -254,689 -259,688C-253.06,691.96 -253.06,691.96 -247,696C-247.66,696.66 -248.32,697.32 -249,698C-247.68,699.32 -246.36,700.64 -245,702C-257.024,703.228 -268.9,704.372 -281,704C-280.34,704.99 -279.68,705.98 -279,707C-293.609,706.369 -307.061,702.751 -320,696C-320.33,696.33 -320.66,696.66 -321,697C-320.67,697.66 -320.34,698.32 -320,699C-322.972,697.875 -325.334,696.777 -328,695C-327.567,695.554 -327.134,696.109 -326.688,696.68C-326.131,697.404 -325.574,698.129 -325,698.875C-324.443,699.594 -323.886,700.314 -323.313,701.055C-322,703 -322,703 -322,705C-321.479,705.255 -320.958,705.51 -320.422,705.773C-317.335,707.337 -314.295,708.981 -311.25,710.625C-310.347,711.112 -310.347,711.112 -309.426,711.609C-307.95,712.406 -306.475,713.203 -305,714L-305,715C-315.824,714.766 -325.318,711.512 -334,705C-334.33,705.66 -334.66,706.32 -335,707C-335.554,706.506 -336.109,706.013 -336.68,705.504C-337.404,704.863 -338.129,704.223 -338.875,703.563C-339.954,702.605 -339.954,702.605 -341.055,701.629C-342.908,699.95 -342.908,699.95 -345,699C-343.077,706.973 -340.952,714.878 -338.714,722.767C-336.852,729.374 -335.883,735.124 -336,742C-343.866,738.407 -349.569,731.534 -355,725C-354.67,727.64 -354.34,730.28 -354,733C-358.281,731.415 -360.207,728.455 -363,725C-362.859,725.584 -362.718,726.168 -362.573,726.769C-361.922,729.471 -361.273,732.173 -360.625,734.875C-360.403,735.793 -360.182,736.711 -359.953,737.656C-358.661,743.055 -357.477,748.456 -356.443,753.911C-356.003,756.178 -356.003,756.178 -355,759C-358.795,757.509 -360.61,755.243 -363,752C-361.187,759.354 -358.814,766.261 -355.891,773.25C-355,776 -355,776 -356,779C-364.446,770.738 -364.446,770.738 -368,766C-368.33,766.66 -368.66,767.32 -369,768C-370.98,765.36 -372.96,762.72 -375,760L-375,763C-375.307,764.073 -375.307,764.073 -375.621,765.168C-376.157,769.174 -375.127,772.457 -374.063,776.313C-373.867,777.053 -373.672,777.794 -373.471,778.557C-372.99,780.374 -372.496,782.187 -372,784C-372.66,784.33 -373.32,784.66 -374,785C-373.484,786.093 -372.969,787.186 -372.438,788.313C-371,792 -371,792 -372,795C-378.072,791.816 -383.326,788.105 -388.375,783.5C-388.874,783.05 -389.373,782.599 -389.888,782.135C-393.172,779.065 -395.709,775.865 -398,772L-398,770L-401,770C-401.99,767.69 -402.98,765.38 -404,763C-403.969,764.918 -403.969,764.918 -403.938,766.875C-403.875,770.75 -403.875,770.75 -405,773C-404.511,774.99 -404.017,776.979 -403.48,778.957C-402.918,781.348 -402.847,783.553 -403,786C-405.211,783.954 -406.644,782.081 -407.973,779.383C-408.315,778.693 -408.657,778.004 -409.01,777.293C-409.357,776.578 -409.705,775.862 -410.063,775.125C-410.414,774.417 -410.765,773.71 -411.127,772.98C-412.905,769.371 -414.575,765.767 -416,762C-416.66,763.32 -417.32,764.64 -418,766C-419.65,762.7 -421.3,759.4 -423,756C-423.33,758.64 -423.66,761.28 -424,764C-427.483,760.981 -428.792,758.431 -430,754L-431,754C-431.33,752.02 -431.66,750.04 -432,748C-432.454,748.784 -432.908,749.568 -433.375,750.375C-435,753 -435,753 -437,755C-437.372,757.618 -437.372,757.618 -437.414,760.664C-437.453,761.786 -437.491,762.907 -437.531,764.063C-437.578,765.826 -437.578,765.826 -437.625,767.625C-437.664,768.808 -437.702,769.992 -437.742,771.211C-437.837,774.14 -437.922,777.07 -438,780C-440.015,777.366 -441.652,774.879 -443.063,771.875C-444.231,769.388 -445.028,767.972 -447,766C-447.625,763.875 -447.625,763.875 -448,762C-448.268,762.969 -448.536,763.939 -448.813,764.938C-450.066,769.339 -451.526,773.668 -453,778C-453.826,775.108 -454,773.113 -454,770C-454.727,770.981 -455.454,771.962 -456.203,772.973C-461.953,780.7 -467.77,788.344 -473.901,795.774C-476.916,799.472 -479.451,803.246 -481.809,807.398C-483,809 -483,809 -486,810C-487.372,811.294 -488.712,812.623 -490,814C-489.783,813.094 -489.567,812.188 -489.344,811.254C-487.76,804.326 -486.651,798.101 -487,791L-487,788C-488.32,791.3 -489.64,794.6 -491,798L-493,798C-493.077,793.484 -493.102,789.409 -492,785C-492.66,784.67 -493.32,784.34 -494,784C-496.546,787.153 -498.298,790.42 -500.063,794.063C-501.589,797.204 -503.061,800.091 -505,803C-505.437,795.251 -505.257,789.094 -501.875,782.023C-500.802,779.908 -500.802,779.908 -501,777C-500,774.667 -499,772.333 -498,770L-498,767C-501.596,768.422 -502.765,769.869 -504.438,773.313C-506.488,777.268 -508.845,779.845 -512,783C-513.212,785.294 -514.091,787.56 -515,790L-516,790C-516.337,783.1 -516.097,778.194 -513,772L-513,769C-511.5,766.813 -511.5,766.813 -510,765C-510.33,764.34 -510.66,763.68 -511,763C-510.495,762.374 -509.989,761.747 -509.469,761.102C-508.819,760.284 -508.169,759.467 -507.5,758.625C-506.525,757.407 -506.525,757.407 -505.531,756.164C-503.807,754.17 -503.807,754.17 -504,752C-507.681,753.536 -509.988,755.782 -512.75,758.625C-513.549,759.442 -514.348,760.26 -515.172,761.102C-516.077,762.041 -516.077,762.041 -517,763C-517.33,762.34 -517.66,761.68 -518,761C-512,753 -512,753 -510.238,750.922C-509.83,750.288 -509.421,749.653 -509,749C-509.33,748.01 -509.66,747.02 -510,746C-509.67,745.01 -509.34,744.02 -509,743C-511.388,743.362 -511.388,743.362 -514,745C-515.413,747.238 -516.567,749.511 -517.691,751.906C-519.222,754.354 -520.457,754.772 -523,756C-524.105,757.7 -524.105,757.7 -524.75,759.625C-525.369,761.296 -525.369,761.296 -526,763L-527,763C-528.066,751.898 -528.066,751.898 -525.652,747.602C-523.86,745.608 -521.978,743.808 -520,742C-518.836,740.682 -517.689,739.35 -516.563,738C-515.717,737.01 -514.871,736.02 -514,735C-514.66,734.67 -515.32,734.34 -516,734C-516.33,733.34 -516.66,732.68 -517,732C-516.67,731.34 -516.34,730.68 -516,730C-516.639,729.773 -517.279,729.546 -517.938,729.313C-520.593,728.175 -522.897,726.903 -525.375,725.438C-529.359,723.168 -532.445,722.291 -537,722C-536.841,722.786 -536.683,723.573 -536.52,724.383C-535.871,728.899 -535.738,733.318 -535.688,737.875C-535.658,738.735 -535.629,739.595 -535.6,740.48C-535.534,747.119 -536.799,752.63 -541.483,757.562C-546.549,761.975 -550.802,762.345 -557.27,762.285C-562.141,761.776 -564.835,759.398 -567.875,755.75C-568.246,755.173 -568.617,754.595 -569,754C-568.67,753.34 -568.34,752.68 -568,752C-567.175,752.66 -566.35,753.32 -565.5,754C-561.714,756.518 -558.426,756.615 -554,756C-550.632,755.102 -550.632,755.102 -548,754C-547.67,752.35 -547.34,750.7 -547,749C-549.31,748.67 -551.62,748.34 -554,748C-554.766,744.001 -555.069,740.612 -554.563,736.563C-553.245,729.142 -553.245,729.142 -555.117,722.168C-556.621,720.302 -556.621,720.302 -559,718C-559.66,718.33 -560.32,718.66 -561,719C-564.341,719.155 -567.208,718.959 -570.5,718.313C-574.698,717.938 -576.483,718.762 -580,721C-580.773,721.835 -580.773,721.835 -581.563,722.688C-583.633,724.578 -585.267,724.067 -588,724C-590.251,724.916 -590.251,724.916 -592,726C-592.66,725.34 -593.32,724.68 -594,724C-596.328,728.382 -596.31,732.299 -595,737C-593.838,739.226 -592.548,741.002 -591,743C-594.753,742.786 -595.946,742.053 -598.688,739.375C-602.159,734.765 -603.259,730.157 -602.875,724.438C-601.873,717.643 -597.402,712.096 -592,708C-588.313,706.75 -588.313,706.75 -585,706C-584.01,705.34 -583.02,704.68 -582,704C-586.219,702.182 -586.219,702.182 -590.625,702.813C-591.409,703.204 -592.193,703.596 -593,704C-594.326,704.362 -595.659,704.697 -597,705C-597.742,705.186 -600.405,705.851 -601,706C-601.495,704.515 -601.495,704.515 -602,703C-605.933,704.43 -608.294,705.865 -610.313,709.5C-612.548,714.471 -612.802,719.613 -613,725C-615.915,722.339 -616.876,720.368 -617.238,716.363C-617.402,709.652 -617.077,704.503 -613,699C-605.977,691.977 -597.206,690.898 -587.758,690.867C-585,691 -585,691 -581.215,691.527C-577.653,691.999 -574.291,691.955 -570.71,691.783C-562.059,691.42 -554.572,692.573 -546.25,694.938C-539.646,696.81 -533.233,698.605 -526.375,699.188C-524.685,699.333 -524.685,699.333 -522.961,699.48C-518.814,698.808 -517.579,697.277 -515,694C-511.058,687.386 -508.992,680.135 -506.682,672.832C-501.353,656.071 -495.589,638.427 -486.381,623.349C-484.497,620.145 -484.28,618.672 -485,615C-490.858,605.854 -501.072,598.36 -509.25,591.313C-515.586,585.8 -521.325,579.944 -526.563,573.375C-533.064,565.321 -539.485,560.128 -549,556C-550.485,555.35 -550.485,555.35 -552,554.688C-558.707,553.15 -565.627,553.344 -572,556C-573.15,557.967 -573.15,557.967 -574,560C-575.64,560.729 -577.313,561.387 -579,562C-584.124,564.785 -586.866,568.288 -590.258,572.879C-592.552,575.672 -594.915,577.164 -598,579C-599.536,582.072 -599.227,584.602 -599,588C-597.618,591.352 -597.618,591.352 -596,594C-602.401,593.836 -606.623,590.345 -611,586C-617.059,577.477 -617.95,569.324 -617,559C-615.453,553.243 -613.586,547.963 -609.816,543.297C-607.688,541.135 -607.688,541.135 -608.188,538.313C-608.941,536.014 -608.941,536.014 -610,534C-610.93,518.205 -600.888,501.951 -591.043,490.297C-590.369,489.539 -589.695,488.781 -589,488C-588.336,487.242 -587.672,486.484 -586.988,485.703C-572.317,469.975 -551.001,461.709 -530,459C-530.497,452.126 -533.1,446.343 -535.813,440.063C-536.303,438.918 -536.794,437.774 -537.299,436.594C-552.158,402.376 -570.836,369.033 -593,339C-593.678,338.065 -594.356,337.131 -595.055,336.168C-603.074,325.422 -613.766,318.862 -625.75,313.188C-634.103,309.113 -641.604,304.669 -649,299C-650.479,297.871 -650.479,297.871 -651.988,296.719C-659.2,291.02 -665.226,285.335 -669.688,277.25C-673.299,270.94 -678.443,266.339 -683.631,261.343C-686.626,258.405 -689.306,255.211 -692,252C-693.187,250.629 -693.187,250.629 -694.398,249.23C-714.629,225.699 -722.337,198.074 -722.375,167.375C-722.377,165.509 -722.377,165.509 -722.38,163.606C-722.251,152.949 -721.889,142.181 -716,133C-714.055,132.105 -714.055,132.105 -712,132C-709.43,134.079 -708.377,136.095 -707.313,139.188C-706.935,140.261 -706.935,140.261 -706.551,141.355C-706.369,141.898 -706.187,142.441 -706,143C-705.991,142.196 -705.981,141.392 -705.972,140.563C-705.607,115.518 -704.683,86.061 -689,65C-686.82,63.715 -686.82,63.715 -685,63C-683.68,64.65 -682.36,66.3 -681,68C-680.769,67.192 -680.539,66.384 -680.301,65.551C-676.831,54.181 -676.831,54.181 -672,51C-669.082,51.198 -667.519,51.509 -665.375,53.539C-657.29,65.804 -655.01,79.733 -653,94C-652.895,92.935 -652.895,92.935 -652.788,91.848C-652.458,88.584 -652.104,85.324 -651.75,82.063C-651.64,80.946 -651.531,79.829 -651.418,78.678C-650.651,71.793 -649.296,66.116 -646,60C-642,60 -642,60 -639.625,62.063C-638.759,63.032 -637.893,64.001 -637,65C-636.524,65.485 -636.049,65.969 -635.559,66.469C-628.383,74.113 -624.532,83.959 -622,94C-620.261,100.894 -609.763,157.926 -610,185L-608,185C-608.012,184.354 -608.023,183.708 -608.035,183.043C-608.163,169.689 -607.513,156.421 -605.688,143.188C-605.582,142.358 -605.477,141.528 -605.368,140.674C-604.591,135.48 -603.388,132.061 -600,128C-597.25,127.188 -597.25,127.188 -594,128C-578.354,136.801 -571.246,160.437 -566.688,176.473C-565.67,180.291 -564.762,184.122 -564,188C-563.822,188.845 -563.644,189.69 -563.46,190.561C-561.813,199.146 -561.768,207.556 -561.875,216.25C-561.885,217.689 -561.894,219.128 -561.902,220.566C-561.924,224.044 -561.958,227.522 -562,231C-557.587,226.587 -555.778,217.459 -553.938,211.625C-552.033,205.759 -550.275,201.517 -545,198C-538.027,198 -534,200.228 -529,205C-518.98,215.99 -517.377,227.603 -517.842,241.872C-518.146,245.959 -519.347,249.28 -521,253C-516.16,252.448 -516.16,252.448 -511.563,250.938C-507.183,249.335 -503.21,249.071 -498.918,250.875C-492.148,254.81 -486.767,260.62 -484,268C-483.59,272.679 -484.171,275.737 -486,280C-485.071,280.557 -484.141,281.114 -483.184,281.688C-468.01,290.98 -468.01,290.98 -464,299C-464.107,299.633 -464.214,300.266 -464.324,300.918C-464.759,303.632 -464.814,305.357 -464,308C-461.226,310.211 -458.353,311.7 -455.195,313.309C-449.734,316.199 -444.269,320.057 -442,326C-441.943,327.131 -441.887,328.261 -441.828,329.426C-440.805,333.84 -439.512,334.649 -435.824,336.975C-434.797,337.575 -434.797,337.575 -433.75,338.188C-432.41,339.012 -431.072,339.839 -429.734,340.668C-429.094,341.06 -428.454,341.452 -427.794,341.856C-422.263,345.382 -417.855,349.346 -416.313,355.938C-414.243,360.767 -410.211,363.034 -406,366C-404.516,367.056 -403.036,368.118 -401.563,369.188C-400.924,369.635 -400.286,370.082 -399.629,370.543C-397.657,372.307 -396.864,373.488 -396,376C-396.059,377.15 -396.119,378.3 -396.18,379.484C-396.368,383.074 -396.368,383.074 -393.945,385.266C-393.015,385.92 -392.084,386.575 -391.125,387.25C-382.25,393.96 -375.391,402.195 -368.789,411.102C-366.77,413.244 -365.886,413.69 -363,414C-361.284,413.065 -361.284,413.065 -359.785,411.492C-359.188,410.924 -358.59,410.356 -357.975,409.77C-357.028,408.832 -357.028,408.832 -356.063,407.875C-355.404,407.241 -354.746,406.606 -354.068,405.953C-352.032,403.982 -350.015,401.993 -348,400C-346.791,398.818 -345.581,397.635 -344.371,396.453C-338.66,390.838 -333.174,385.117 -328,379C-327.078,377.952 -326.155,376.905 -325.23,375.859C-312.163,360.996 -303.049,345.991 -296.048,327.389C-294.766,323.989 -293.46,320.599 -292.156,317.207C-291.761,316.176 -291.761,316.176 -291.357,315.124C-271.373,263.062 -271.373,263.062 -255,251C-252.063,250.313 -252.063,250.313 -249,251C-246.692,253.119 -244.826,255.461 -243,258C-241.35,257.67 -239.7,257.34 -238,257C-237.162,258.455 -236.329,259.914 -235.5,261.375C-235.036,262.187 -234.572,262.999 -234.094,263.836C-233,266 -233,266 -233,268L-230,268C-229.753,267.319 -229.505,266.639 -229.25,265.938C-228.06,263.14 -226.663,260.565 -225.132,257.941C-204.998,223.425 -198.555,187.617 -192.327,148.639C-190.88,139.586 -189.122,130.672 -187,121.75C-186.763,120.749 -186.525,119.749 -186.281,118.718C-184.55,111.681 -182.381,104.843 -180,98C-167.348,114.379 -168.475,139.486 -170.727,158.914C-173.074,176.688 -176.865,194.136 -183,211C-156.028,176.311 -145.81,131.365 -134.339,89.814C-124.256,53.398 -124.256,53.398 -116.125,36.938C-115.356,35.36 -115.356,35.36 -114.572,33.751C-109.844,24.277 -104.759,15.306 -96,9L-94,9C-93.652,11.749 -93.322,14.498 -93,17.25C-92.905,17.989 -92.809,18.727 -92.711,19.488C-90.855,35.797 -92.035,51.501 -95.063,67.563C-95.381,69.314 -95.699,71.066 -96.017,72.818C-98.468,86.086 -101.495,99.129 -105.194,112.11C-105.965,114.874 -106.668,117.647 -107.352,120.434C-111.253,135.878 -118.127,149.712 -125.455,163.797C-125.906,164.672 -126.356,165.547 -126.82,166.449C-127.221,167.217 -127.622,167.985 -128.036,168.776C-129.515,172.187 -129.795,175.305 -130,179C-119.383,173.025 -112.185,162.586 -105,153C-104.484,152.312 -103.968,151.625 -103.436,150.916C-90.364,133.391 -79.173,114.769 -68,96C-65.011,90.993 -62.008,85.995 -59,81C-58.411,80.021 -57.822,79.041 -57.216,78.032C-27.584,28.792 -27.584,28.792 -16,15C-15.221,14.071 -14.443,13.141 -13.641,12.184C-9.49,7.399 -5.504,3.192 0,0Z" style="fill:rgb(238,247,255);fill-rule:nonzero;"/>
    </g>
</svg>
